<svg xmlns="http://www.w3.org/2000/svg" version="1.1" xmlns:xlink="http://www.w3.org/1999/xlink" xmlns:svgjs="http://svgjs.dev/svgjs" width="800px" height="800px"><svg version="1.1" id="SvgjsSvg1049" xmlns="http://www.w3.org/2000/svg" xmlns:xlink="http://www.w3.org/1999/xlink" viewBox="0 0 460 460" xml:space="preserve" width="800px" height="800px" fill="#000000">

<g id="SvgjsG1048" stroke-width="0"></g>

<g id="SvgjsG1047" stroke-linecap="round" stroke-linejoin="round"></g>

<g id="SvgjsG1046"> <g id="SvgjsG1045"> <path id="SvgjsPath1044" style="fill:#EA5A20;" d="M230,0C102.974,0,0,102.975,0,230c0,115.418,85.015,210.98,195.841,227.481 L457.48,195.838C440.979,85.014,345.417,0,230,0z"></path> <path id="SvgjsPath1043" style="fill:#BD0A13;" d="M460,230c0-11.608-0.869-23.012-2.529-34.158l-96.657-96.656L99.185,360.815 l96.656,96.657C206.988,459.131,218.392,460,230,460C357.025,460,460,357.025,460,230z"></path> <path id="SvgjsPath1042" style="fill:#06384A;" d="M405,230c0-96.649-78.351-175-175-175l-87.5,175L230,405 C326.649,405,405,326.65,405,230z"></path> <path id="SvgjsPath1041" style="fill:#084B63;" d="M230,230v175c-96.65,0-175-78.35-175-175H230z"></path> <path id="SvgjsPath1040" style="fill:#62B3CD;" d="M230,55v175H55C55,133.35,133.35,55,230,55z"></path> <path id="SvgjsPath1039" style="fill:#146A8A;" d="M230,103.17c69.94,0,126.83,56.89,126.83,126.83S299.94,356.83,230,356.83v-20 c58.91,0,106.83-47.92,106.83-106.83S288.91,123.17,230,123.17V103.17z"></path> <path id="SvgjsPath1038" style="fill:#146A8A;" d="M230,161.33c37.86,0,68.67,30.81,68.67,68.67s-30.81,68.67-68.67,68.67v-20 c26.83,0,48.67-21.84,48.67-48.67s-21.84-48.67-48.67-48.67L230,161.33L230,161.33z"></path> <path id="SvgjsPath1037" style="fill:#2089B0;" d="M230,336.83v20c-69.94,0-126.83-56.89-126.83-126.83S160.06,103.17,230,103.17v20 c-58.91,0-106.83,47.92-106.83,106.83S171.09,336.83,230,336.83z"></path> <path id="SvgjsPath1036" style="fill:#2089B0;" d="M230,278.67v20c-37.86,0-68.67-30.81-68.67-68.67s30.81-68.67,68.67-68.67v20 c-26.83,0-48.67,21.84-48.67,48.67S203.17,278.67,230,278.67z"></path> <rect id="SvgjsRect1035" x="230" y="220" style="fill:#146A8A;" width="170" height="20"></rect> <rect id="SvgjsRect1034" x="60" y="220" style="fill:#2089B0;" width="170" height="20"></rect> <rect id="SvgjsRect1033" x="220" y="60" style="fill:#2089B0;" width="20" height="340"></rect> <path id="SvgjsPath1032" style="fill:#82C8DB;" d="M230,45l-10.16,10.32L230,65c91.127,0,165,73.874,165,165 c0,91.127-73.873,165-165,165l-10.16,9.68L230,415c102.172,0,185-82.827,185-185C415,127.828,332.172,45,230,45z"></path> <path id="SvgjsPath1031" style="fill:#FFFFFF;" d="M65,230c0-91.126,73.873-165,165-165V45C127.828,45,45,127.828,45,230 c0,102.173,82.828,185,185,185v-20C138.873,395,65,321.127,65,230z"></path> <path id="SvgjsPath1030" style="fill:#A3DDE9;" d="M326.415,230c0,11.046,8.954,20,20,20l10-20l-10-20 C335.369,210,326.415,218.954,326.415,230z"></path> <path id="SvgjsPath1029" style="fill:#82C8DB;" d="M346.415,210v40c11.046,0,20-8.954,20-20S357.461,210,346.415,210z"></path> <path id="SvgjsPath1028" style="fill:#A3DDE9;" d="M167.682,312.318c0-11.046-8.954-20-20-20l-10,20l10,20 C158.728,332.318,167.682,323.364,167.682,312.318z"></path> <path id="SvgjsPath1027" style="fill:#FFFFFF;" d="M147.682,332.318v-40c-11.046,0-20,8.954-20,20 C127.682,323.364,136.637,332.318,147.682,332.318z"></path> <path id="SvgjsPath1026" style="fill:#A3DDE9;" d="M186.33,228.651c0-8.284-6.716-15-15-15l-7.5,15l7.5,15 C179.614,243.651,186.33,236.935,186.33,228.651z"></path> <path id="SvgjsPath1025" style="fill:#FFFFFF;" d="M171.33,243.651v-30c-8.284,0-15,6.716-15,15S163.046,243.651,171.33,243.651z"></path> </g> </g>

</svg><style>@media (prefers-color-scheme: light) { :root { filter: none; } }
@media (prefers-color-scheme: dark) { :root { filter: none; } }
</style></svg>